<?xml version="1.0" encoding="UTF-8"?>
<svg xmlns="http://www.w3.org/2000/svg" xmlns:xlink="http://www.w3.org/1999/xlink" width="32px" height="32px" viewBox="0 0 32 32" version="1.1">
<g id="surface1">
<path style=" stroke:none;fill-rule:nonzero;fill:rgb(0%,0%,0%);fill-opacity:1;" d="M 7.921875 27.992188 C 6.324219 27.992188 5.019531 26.691406 5.019531 25.089844 L 5.019531 12.421875 L 25.628906 12.421875 L 25.628906 19.175781 C 26.390625 19.359375 27.101562 19.664062 27.75 20.066406 L 27.722656 6.035156 C 27.71875 5.074219 26.9375 4.292969 25.976562 4.292969 L 25.976562 3.578125 C 25.976562 1.894531 24.605469 0.523438 22.878906 0.523438 C 21.195312 0.523438 19.824219 1.894531 19.824219 3.578125 L 19.824219 4.292969 L 18.402344 4.292969 L 18.402344 3.578125 C 18.402344 1.894531 17.03125 0.523438 15.304688 0.523438 C 13.617188 0.523438 12.246094 1.894531 12.246094 3.578125 L 12.246094 4.292969 L 10.828125 4.292969 L 10.828125 3.578125 C 10.828125 1.894531 9.457031 0.523438 7.730469 0.523438 C 6.042969 0.523438 4.671875 1.894531 4.671875 3.578125 L 4.671875 4.292969 C 3.710938 4.292969 2.933594 5.074219 2.929688 6.035156 L 2.902344 25.089844 C 2.902344 27.859375 5.152344 30.113281 7.921875 30.113281 L 17.679688 30.113281 C 17.277344 29.464844 16.980469 28.753906 16.792969 27.992188 Z M 21.941406 3.578125 C 21.941406 3.0625 22.359375 2.640625 22.917969 2.640625 C 23.4375 2.640625 23.855469 3.0625 23.855469 3.578125 L 23.855469 7.179688 C 23.855469 7.695312 23.4375 8.117188 22.917969 8.117188 L 22.878906 8.117188 C 22.359375 8.117188 21.941406 7.695312 21.941406 7.179688 Z M 14.367188 3.578125 C 14.367188 3.0625 14.789062 2.640625 15.34375 2.640625 C 15.859375 2.640625 16.28125 3.0625 16.28125 3.578125 L 16.28125 7.179688 C 16.28125 7.695312 15.859375 8.117188 15.34375 8.117188 L 15.304688 8.117188 C 14.789062 8.117188 14.367188 7.695312 14.367188 7.179688 Z M 6.792969 3.578125 C 6.792969 3.0625 7.210938 2.640625 7.769531 2.640625 C 8.289062 2.640625 8.707031 3.0625 8.707031 3.578125 L 8.707031 7.179688 C 8.707031 7.695312 8.289062 8.117188 7.769531 8.117188 L 7.730469 8.117188 C 7.210938 8.117188 6.792969 7.695312 6.792969 7.179688 Z M 6.792969 3.578125 "/>
<path style=" stroke:none;fill-rule:nonzero;fill:rgb(0%,0%,0%);fill-opacity:1;" d="M 23.898438 21.082031 C 21.03125 21.082031 18.703125 23.410156 18.703125 26.277344 C 18.703125 29.148438 21.03125 31.476562 23.898438 31.476562 C 26.773438 31.476562 29.097656 29.148438 29.097656 26.277344 C 29.097656 23.410156 26.773438 21.082031 23.898438 21.082031 Z M 25.921875 27.53125 C 25.820312 27.691406 25.648438 27.78125 25.472656 27.78125 C 25.375 27.78125 25.28125 27.757812 25.195312 27.703125 L 23.621094 26.730469 C 23.464844 26.632812 23.371094 26.460938 23.371094 26.277344 L 23.371094 23.207031 C 23.371094 22.914062 23.609375 22.675781 23.898438 22.675781 C 24.195312 22.675781 24.429688 22.914062 24.429688 23.207031 L 24.429688 25.984375 L 25.75 26.800781 C 26 26.957031 26.078125 27.28125 25.921875 27.53125 Z M 25.921875 27.53125 "/>
<path style=" stroke:none;fill-rule:nonzero;fill:rgb(0%,0%,0%);fill-opacity:1;" d="M 16.757812 19.867188 L 16.757812 19.835938 C 18.054688 19.378906 18.683594 18.507812 18.683594 17.386719 C 18.683594 15.949219 17.4375 14.765625 15.1875 14.765625 C 14.089844 14.765625 13.054688 15.019531 12.367188 15.328125 C 12.113281 15.441406 11.980469 15.726562 12.054688 15.992188 L 12.253906 16.695312 C 12.296875 16.847656 12.402344 16.976562 12.546875 17.046875 C 12.691406 17.117188 12.859375 17.125 13.007812 17.0625 C 13.46875 16.875 14.0625 16.710938 14.636719 16.710938 C 15.675781 16.710938 16.191406 17.179688 16.191406 17.808594 C 16.191406 18.699219 15.136719 19.007812 14.3125 19.023438 L 13.921875 19.023438 C 13.609375 19.023438 13.355469 19.277344 13.355469 19.585938 L 13.355469 20.226562 C 13.355469 20.539062 13.609375 20.789062 13.921875 20.789062 L 14.363281 20.789062 C 15.445312 20.789062 16.484375 21.257812 16.484375 22.296875 C 16.484375 23.089844 15.835938 23.703125 14.554688 23.703125 C 13.871094 23.703125 13.191406 23.511719 12.6875 23.3125 C 12.539062 23.257812 12.371094 23.265625 12.226562 23.335938 C 12.085938 23.40625 11.980469 23.535156 11.9375 23.691406 L 11.726562 24.46875 C 11.652344 24.738281 11.789062 25.019531 12.042969 25.128906 C 12.695312 25.421875 13.648438 25.648438 14.734375 25.648438 C 15.453125 25.648438 16.089844 25.542969 16.648438 25.363281 C 16.851562 23.730469 17.59375 22.265625 18.691406 21.148438 C 18.289062 20.472656 17.578125 20.015625 16.757812 19.867188 Z M 16.757812 19.867188 "/>
</g>
</svg>
